<?xml version="1.0" encoding="utf-8"?>
<!-- Generator: Adobe Illustrator 24.2.1, SVG Export Plug-In . SVG Version: 6.00 Build 0)  -->
<svg version="1.1" xmlns="http://www.w3.org/2000/svg" xmlns:xlink="http://www.w3.org/1999/xlink" x="0px" y="0px"
	 viewBox="0 0 24 14" style="enable-background:new 0 0 24 14;" xml:space="preserve">
<style type="text/css">
	.st0{display:none;}
	.st1{display:inline;}
</style>
<g id="Calque_1" class="st0">
	<path class="st1" d="M20,1.7H4c-1.1,0-2,0.5-2,1.2V11c0,0.6,0.9,1.2,2,1.2h16c1.1,0,2-0.5,2-1.2V2.9C22,2.2,21.1,1.7,20,1.7z
		 M8.1,10.4H6.7V4.9L5,5.4V4.3l2.9-1.1h0.2L8.1,10.4L8.1,10.4z M10.9,10.4c-0.4,0-0.8-0.3-0.8-0.8s0.4-0.8,0.8-0.8s0.8,0.3,0.8,0.8
		S11.3,10.4,10.9,10.4z M10.9,6.4c-0.4,0-0.8-0.3-0.8-0.8s0.4-0.8,0.8-0.8s0.8,0.3,0.8,0.8S11.3,6.4,10.9,6.4z M19.3,10.4h-1.5
		L15,5.7v4.7h-1.5V3.2H15l2.9,4.7V3.2h1.5L19.3,10.4L19.3,10.4z"/>
</g>
<g id="Calque_3" class="st0">
	<path class="st1" d="M20,1.7H4c-1.1,0-2,0.5-2,1.2v8.2c0,0.6,0.9,1.2,2,1.2h16c1.1,0,2-0.5,2-1.2V2.9C22,2.2,21.1,1.7,20,1.7z
		 M9.9,10.4H8.5L5.6,5.7v4.7H4.2V3.3h1.5L8.5,8V3.3h1.5V10.4z M12,10.5c-0.4,0-0.8-0.3-0.8-0.8S11.6,9,12,9s0.8,0.3,0.8,0.8
		S12.4,10.5,12,10.5z M12,6.5c-0.4,0-0.8-0.3-0.8-0.8S11.6,5,12,5s0.8,0.3,0.8,0.8S12.4,6.5,12,6.5z M19.8,10.4h-1.5l-2.9-4.7v4.7
		H14V3.3h1.5L18.4,8V3.3h1.5L19.8,10.4L19.8,10.4z"/>
</g>
<g id="Calque_2">
	<path d="M20,1.7H4c-1.1,0-2,0.5-2,1.2V11c0,0.6,0.9,1.2,2,1.2h16c1.1,0,2-0.5,2-1.2V2.9C22,2.2,21.1,1.7,20,1.7z M18.9,10.3h-1.4
		V4.9l-1.7,0.5V4.3l2.9-1.1h0.2L18.9,10.3L18.9,10.3z M13.1,10.4c-0.4,0-0.8-0.3-0.8-0.8s0.4-0.8,0.8-0.8s0.8,0.3,0.8,0.8
		S13.6,10.4,13.1,10.4z M13.1,6.4c-0.4,0-0.8-0.3-0.8-0.8s0.4-0.8,0.8-0.8s0.8,0.3,0.8,0.8S13.6,6.4,13.1,6.4z M10,10.3H8.6L5.7,5.7
		v4.7H4.3V3.2h1.5l2.9,4.7V3.2H10L10,10.3L10,10.3z"/>
</g>
</svg>
